<svg width="424" height="424" viewBox="0 0 424 424" fill="none" xmlns="http://www.w3.org/2000/svg">
<g filter="url(#filter0_d_405_3642)">
<rect x="24" width="400" height="400" rx="65" fill="#00FFF0"/>
<rect x="39" y="15" width="370" height="370" rx="50" stroke="#9DD6F5" stroke-width="30"/>
</g>
<path d="M144.124 339V84.4545H312.661V128.826H197.941V189.479H301.474V233.851H197.941V339H144.124Z" fill="#F8D06A"/>
<path d="M144.124 339H134.124V349H144.124V339ZM144.124 84.4545V74.4545H134.124V84.4545H144.124ZM312.661 84.4545H322.661V74.4545H312.661V84.4545ZM312.661 128.826V138.826H322.661V128.826H312.661ZM197.941 128.826V118.826H187.941V128.826H197.941ZM197.941 189.479H187.941V199.479H197.941V189.479ZM301.474 189.479H311.474V179.479H301.474V189.479ZM301.474 233.851V243.851H311.474V233.851H301.474ZM197.941 233.851V223.851H187.941V233.851H197.941ZM197.941 339V349H207.941V339H197.941ZM154.124 339V84.4545H134.124V339H154.124ZM144.124 94.4545H312.661V74.4545H144.124V94.4545ZM302.661 84.4545V128.826H322.661V84.4545H302.661ZM312.661 118.826H197.941V138.826H312.661V118.826ZM187.941 128.826V189.479H207.941V128.826H187.941ZM197.941 199.479H301.474V179.479H197.941V199.479ZM291.474 189.479V233.851H311.474V189.479H291.474ZM301.474 223.851H197.941V243.851H301.474V223.851ZM187.941 233.851V339H207.941V233.851H187.941ZM197.941 329H144.124V349H197.941V329Z" fill="black"/>
<defs>
<filter id="filter0_d_405_3642" x="0" y="0" width="424" height="424" filterUnits="userSpaceOnUse" color-interpolation-filters="sRGB">
<feFlood flood-opacity="0" result="BackgroundImageFix"/>
<feColorMatrix in="SourceAlpha" type="matrix" values="0 0 0 0 0 0 0 0 0 0 0 0 0 0 0 0 0 0 127 0" result="hardAlpha"/>
<feOffset dx="-20" dy="20"/>
<feGaussianBlur stdDeviation="2"/>
<feComposite in2="hardAlpha" operator="out"/>
<feColorMatrix type="matrix" values="0 0 0 0 0 0 0 0 0 0 0 0 0 0 0 0 0 0 0.5 0"/>
<feBlend mode="normal" in2="BackgroundImageFix" result="effect1_dropShadow_405_3642"/>
<feBlend mode="normal" in="SourceGraphic" in2="effect1_dropShadow_405_3642" result="shape"/>
</filter>
</defs>
</svg>
